<!DOCTYPE svg PUBLIC "-//W3C//DTD SVG 1.1//EN" "http://www.w3.org/Graphics/SVG/1.1/DTD/svg11.dtd">
<!-- Uploaded to: SVG Repo, www.svgrepo.com, Transformed by: SVG Repo Mixer Tools -->
<svg height="800px" width="800px" version="1.1" id="Layer_1" xmlns="http://www.w3.org/2000/svg" xmlns:xlink="http://www.w3.org/1999/xlink" viewBox="0 0 512.00 512.00" xml:space="preserve" fill="#000000" transform="matrix(1, 0, 0, 1, 0, 0)" stroke="#000000" stroke-width="6.656000000000001">
<g id="SVGRepo_bgCarrier" stroke-width="0"/>
<g id="SVGRepo_tracerCarrier" stroke-linecap="round" stroke-linejoin="round"/>
<g id="SVGRepo_iconCarrier"> <polygon style="fill:#81E3E2;" points="171.843,68.504 233.05,199.763 378.051,291.949 426.251,281.978 "/> <polygon style="fill:#ecacb2;" points="171.844,400.611 267.159,325.299 354.22,512 394.352,493.286 307.292,306.586 378.051,291.949 171.843,68.504 "/> <g> <path style="fill:#42C8C6;" d="M157.814,46.71c-3.127,0-6.122-1.776-7.53-4.796l-14.036-30.099 c-1.937-4.156-0.139-9.096,4.016-11.034c4.152-1.942,9.095-0.141,11.034,4.015l14.036,30.099c1.937,4.156,0.139,9.096-4.016,11.034 C160.181,46.46,158.988,46.71,157.814,46.71z"/> <path style="fill:#42C8C6;" d="M125.262,88.047c-0.943,0-1.902-0.162-2.838-0.503L91.214,76.185 c-4.31-1.569-6.53-6.333-4.963-10.642c1.569-4.309,6.334-6.528,10.642-4.962l31.208,11.359c4.31,1.569,6.53,6.333,4.963,10.642 C131.836,85.954,128.652,88.047,125.262,88.047z"/> <path style="fill:#42C8C6;" d="M210.394,48.349c-0.943,0-1.902-0.162-2.84-0.503c-4.309-1.569-6.53-6.333-4.962-10.642 l11.359-31.207c1.569-4.31,6.331-6.527,10.642-4.962c4.309,1.569,6.53,6.333,4.962,10.642l-11.359,31.207 C216.969,46.255,213.786,48.349,210.394,48.349z"/> </g> </g>
</svg>